<svg aria-hidden="true" style="position: absolute; width: 0; height: 0; overflow: hidden;" version="1.1" xmlns="http://www.w3.org/2000/svg" xmlns:xlink="http://www.w3.org/1999/xlink">
<defs>
<symbol id="icon-heart" viewBox="0 0 37 32">
<path fill="#b02e51" style="fill: var(--color1, #b02e51)" d="M32.327 3.625c-3.702-3.096-9.154-2.625-12.586 0.942l-1.279 1.346-1.346-1.346c-2.759-2.827-8.279-4.577-12.586-0.942-4.24 3.635-4.442 10.096-0.673 14l13.058 13.462c0.404 0.404 0.942 0.606 1.481 0.606 0.606 0 1.144-0.202 1.548-0.606l13.058-13.462c3.769-3.904 3.567-10.365-0.673-14zM31.452 16.144l-12.99 13.462-13.058-13.462c-2.558-2.692-3.096-7.74 0.538-10.837 3.702-3.163 8.010-0.875 9.625 0.74l2.894 2.962 2.827-2.962c1.548-1.615 5.923-3.904 9.625-0.74 3.635 3.096 3.096 8.144 0.538 10.837z"></path>
</symbol>
</defs>
</svg>