<svg aria-hidden="true" style="position: absolute; width: 0; height: 0; overflow: hidden;" version="1.1" xmlns="http://www.w3.org/2000/svg" xmlns:xlink="http://www.w3.org/1999/xlink">
<defs>
<symbol id="icon-heart" viewBox="0 0 37 32">
<path fill="#b02e51" style="fill: var(--color1, #b02e51)" d="M32.327 3.625c-3.702-3.096-9.154-2.625-12.586 0.942l-1.279 1.346-1.346-1.346c-2.759-2.827-8.279-4.577-12.586-0.942-4.24 3.635-4.442 10.096-0.673 14l13.058 13.462c0.404 0.404 0.942 0.606 1.481 0.606 0.606 0 1.144-0.202 1.548-0.606l13.058-13.462c3.769-3.904 3.567-10.365-0.673-14zM31.452 16.144l-12.99 13.462-13.058-13.462c-2.558-2.692-3.096-7.74 0.538-10.837 3.702-3.163 8.010-0.875 9.625 0.74l2.894 2.962 2.827-2.962c1.548-1.615 5.923-3.904 9.625-0.74 3.635 3.096 3.096 8.144 0.538 10.837z"></path>
</symbol>
<symbol id="icon-phone" viewBox="0 0 32 32">
<path d="M24.591 32c-6.519-0.009-12.769-2.607-17.379-7.226s-7.203-10.881-7.212-17.414c0-1.952 0.774-3.824 2.151-5.204s3.246-2.156 5.194-2.156c0.413-0.003 0.824 0.034 1.23 0.112 0.392 0.058 0.777 0.155 1.15 0.288 0.262 0.092 0.496 0.251 0.678 0.462s0.306 0.465 0.36 0.738l2.188 9.6c0.059 0.261 0.052 0.532-0.021 0.789s-0.208 0.492-0.395 0.683c-0.208 0.224-0.224 0.24-2.188 1.264 1.573 3.457 4.332 6.234 7.776 7.824 1.038-1.984 1.054-2 1.277-2.208 0.191-0.187 0.425-0.323 0.682-0.395s0.527-0.080 0.787-0.021l9.581 2.192c0.264 0.061 0.508 0.189 0.709 0.371s0.353 0.412 0.441 0.669c0.135 0.38 0.236 0.771 0.303 1.168 0.064 0.402 0.096 0.809 0.096 1.216-0.029 1.944-0.825 3.797-2.213 5.155s-3.256 2.11-5.196 2.093z"></path>
</symbol>
<symbol id="icon-contact" viewBox="0 0 32 32">
<path d="M16 15.467c1.055 0 2.086-0.313 2.963-0.899s1.561-1.419 1.964-2.394 0.509-2.047 0.304-3.081c-0.206-1.035-0.714-1.985-1.46-2.731s-1.696-1.254-2.731-1.46-2.107-0.1-3.082 0.303c-0.975 0.404-1.807 1.087-2.393 1.964s-0.899 1.908-0.899 2.963c0 1.414 0.562 2.771 1.562 3.771s2.357 1.562 3.771 1.562z"></path>
<path d="M24 28.8c0.354 0 0.693-0.14 0.943-0.39s0.39-0.589 0.39-0.943c0-2.475-0.983-4.849-2.734-6.6s-4.124-2.734-6.6-2.734-4.849 0.983-6.6 2.734c-1.75 1.75-2.734 4.124-2.734 6.6 0 0.354 0.14 0.693 0.391 0.943s0.589 0.39 0.943 0.39h16z"></path>
</symbol>
<symbol id="icon-checkmark" viewBox="0 0 32 32">
<path d="M13.147 24c-0.183-0.001-0.364-0.039-0.531-0.112s-0.318-0.18-0.442-0.315l-6.48-6.893c-0.242-0.258-0.372-0.602-0.361-0.956s0.163-0.689 0.421-0.931c0.258-0.242 0.602-0.372 0.956-0.361s0.689 0.163 0.931 0.421l5.493 5.853 11.213-12.267c0.114-0.142 0.255-0.259 0.416-0.344s0.337-0.136 0.518-0.151c0.181-0.014 0.363 0.008 0.535 0.067s0.33 0.152 0.465 0.274c0.135 0.122 0.243 0.27 0.318 0.436s0.116 0.344 0.12 0.526c0.004 0.182-0.030 0.362-0.099 0.53s-0.171 0.321-0.301 0.448l-12.187 13.333c-0.123 0.136-0.273 0.246-0.441 0.322s-0.349 0.116-0.533 0.118h-0.013z"></path>
</symbol>
</defs>
</svg>